<?xml version="1.0" encoding="iso-8859-1"?>
<!-- Generator: Adobe Illustrator 19.0.0, SVG Export Plug-In . SVG Version: 6.00 Build 0)  -->
<svg version="1.1" id="Layer_1" xmlns="http://www.w3.org/2000/svg" xmlns:xlink="http://www.w3.org/1999/xlink" x="0px" y="0px"
	 viewBox="0 0 512 512" style="enable-background:new 0 0 512 512;" xml:space="preserve">
<path style="fill:#F4C914;" d="M492.04,8.242v495.517c0,2.277-0.927,4.347-2.421,5.841c-1.494,1.484-3.544,2.4-5.821,2.4H284.65
	c-2.277,0-4.327-0.917-5.821-2.4c-1.494-1.494-2.421-3.564-2.421-5.841V8.242c0-2.277,0.927-4.347,2.421-5.841
	c1.494-1.473,3.544-2.4,5.821-2.4h199.148c2.277,0,4.327,0.927,5.821,2.4C491.113,3.894,492.04,5.965,492.04,8.242z"/>
<g>
	<path style="fill:#FFEB96;" d="M489.619,509.6c-1.494,1.484-3.544,2.4-5.821,2.4H284.65c-2.277,0-4.327-0.917-5.821-2.4
		l35.861-35.593h139.067L489.619,509.6z"/>
	<path style="fill:#FFEB96;" d="M489.619,2.4l-35.861,35.604H314.691L278.829,2.4c1.494-1.473,3.544-2.4,5.821-2.4h199.148
		C486.075,0,488.125,0.927,489.619,2.4z"/>
</g>
<rect x="314.685" y="38.012" style="fill:#FFE164;" width="139.077" height="435.981"/>
<g>
	<polygon style="fill:#FFEB96;" points="453.764,114.564 453.764,208.976 314.691,348.05 314.691,253.637 	"/>
	<polygon style="fill:#FFEB96;" points="453.764,229.077 453.764,256.928 314.691,396.001 314.691,368.15 	"/>
</g>
<g>
	<path style="fill:#F4C914;" d="M423.46,166.273h-74.368c-4.268,0-7.727-3.458-7.727-7.727s3.458-7.727,7.727-7.727h74.368
		c4.268,0,7.727,3.458,7.727,7.727S427.727,166.273,423.46,166.273z"/>
	<path style="fill:#F4C914;" d="M423.46,406.571h-74.368c-4.268,0-7.727-3.458-7.727-7.727s3.458-7.727,7.727-7.727h74.368
		c4.268,0,7.727,3.458,7.727,7.727S427.727,406.571,423.46,406.571z"/>
	<path style="fill:#F4C914;" d="M401.804,201.97h-31.056c-4.268,0-7.727-3.458-7.727-7.727s3.458-7.727,7.727-7.727h31.056
		c4.268,0,7.727,3.458,7.727,7.727S406.073,201.97,401.804,201.97z"/>
	<path style="fill:#F4C914;" d="M386.274,329.891c-4.268,0-7.727-3.458-7.727-7.727v-82.322c0-4.268,3.458-7.727,7.727-7.727
		s7.727,3.458,7.727,7.727v82.322C394.001,326.432,390.542,329.891,386.274,329.891z"/>
	<path style="fill:#F4C914;" d="M235.592,8.242v495.517c0,2.277-0.927,4.347-2.421,5.841c-1.494,1.484-3.544,2.4-5.821,2.4H28.202
		c-2.277,0-4.327-0.917-5.821-2.4c-1.494-1.494-2.421-3.564-2.421-5.841V8.242c0-2.277,0.927-4.347,2.421-5.841
		C23.875,0.927,25.925,0,28.202,0H227.35c2.277,0,4.327,0.927,5.821,2.4C234.665,3.894,235.592,5.965,235.592,8.242z"/>
</g>
<g>
	<path style="fill:#FFEB96;" d="M233.171,509.6c-1.494,1.484-3.544,2.4-5.821,2.4H28.202c-2.277,0-4.327-0.917-5.821-2.4
		l35.861-35.593h139.067L233.171,509.6z"/>
	<path style="fill:#FFEB96;" d="M233.171,2.4l-35.861,35.604H58.242L22.381,2.4C23.875,0.927,25.925,0,28.202,0H227.35
		C229.627,0,231.677,0.927,233.171,2.4z"/>
</g>
<rect x="58.237" y="38.012" style="fill:#FFE164;" width="139.077" height="435.981"/>
<g>
	<polygon style="fill:#FFEB96;" points="197.316,114.564 197.316,208.976 58.242,348.05 58.242,253.637 	"/>
	<polygon style="fill:#FFEB96;" points="197.316,229.077 197.316,256.928 58.242,396.001 58.242,368.15 	"/>
</g>
<g>
	<path style="fill:#F4C914;" d="M167.012,166.273H92.645c-4.268,0-7.727-3.458-7.727-7.727s3.458-7.727,7.727-7.727h74.368
		c4.268,0,7.727,3.458,7.727,7.727S171.28,166.273,167.012,166.273z"/>
	<path style="fill:#F4C914;" d="M167.012,406.571H92.645c-4.268,0-7.727-3.458-7.727-7.727s3.458-7.727,7.727-7.727h74.368
		c4.268,0,7.727,3.458,7.727,7.727S171.28,406.571,167.012,406.571z"/>
	<path style="fill:#F4C914;" d="M145.357,201.97h-31.056c-4.268,0-7.727-3.458-7.727-7.727s3.458-7.727,7.727-7.727h31.056
		c4.268,0,7.727,3.458,7.727,7.727S149.624,201.97,145.357,201.97z"/>
	<path style="fill:#F4C914;" d="M129.826,329.891c-4.268,0-7.727-3.458-7.727-7.727v-82.322c0-4.268,3.458-7.727,7.727-7.727
		c4.268,0,7.727,3.458,7.727,7.727v82.322C137.553,326.432,134.094,329.891,129.826,329.891z"/>
</g>
<g>
</g>
<g>
</g>
<g>
</g>
<g>
</g>
<g>
</g>
<g>
</g>
<g>
</g>
<g>
</g>
<g>
</g>
<g>
</g>
<g>
</g>
<g>
</g>
<g>
</g>
<g>
</g>
<g>
</g>
</svg>
