<svg id="Capa_1" enable-background="new 0 0 512.35 512.35" height="512" viewBox="0 0 512.35 512.35" width="512" xmlns="http://www.w3.org/2000/svg"><path d="m443.108 32.072c-16.475 0-29.878 13.385-29.878 29.838s13.403 29.838 29.878 29.838 29.878-13.385 29.878-29.838-13.403-29.838-29.878-29.838zm0 44.676c-8.204 0-14.878-6.656-14.878-14.838s6.674-14.838 14.878-14.838 14.878 6.656 14.878 14.838-6.674 14.838-14.878 14.838zm26.601 58.478c0-14.648-11.933-26.566-26.601-26.566-14.667 0-26.601 11.918-26.601 26.566s11.933 26.566 26.601 26.566 26.601-11.918 26.601-26.566zm-26.601 11.566c-6.396 0-11.601-5.188-11.601-11.566s5.204-11.566 11.601-11.566 11.601 5.188 11.601 11.566-5.204 11.566-11.601 11.566zm55.348 318.472h-108.486v-158.087l43.641-36.586c50.274-42.146 78.973-103.907 78.738-169.444l-.279-77.608c-.051-12.9-10.577-23.363-23.489-23.363h-.081l-19.762.083c-4.143.018-7.486 3.39-7.469 7.531.018 4.132 3.372 7.469 7.5 7.469h.032l19.756-.083h.029c4.663 0 8.466 3.772 8.484 8.42l.279 77.606c.219 61.068-26.525 118.619-73.375 157.896l-34.067 28.56-1.041-263.681s3.847-8.494 8.464-8.488l41.473-.193c4.142-.02 7.484-3.393 7.465-7.535-.02-4.13-3.374-7.465-7.499-7.465h-.036l-41.463.192c-6.272.021-12.161 2.481-16.582 6.926-4.424 4.449-6.846 10.352-6.822 16.621l.14 35.44h-67.042c-1.085-7.972-7.363-14.299-15.315-15.473l-11.7-31.934c-2.614-7.114-9.466-11.894-17.049-11.894h-76.75c-7.583 0-14.436 4.779-17.053 11.9l-11.696 31.926c-7.952 1.17-14.23 7.499-15.315 15.474h-27.736v-24.497c0-6.893-5.607-12.5-12.5-12.5h-44c-6.893 0-12.5 5.607-12.5 12.5v24.498h-31.85c-7.444 0-13.5 6.056-13.5 13.5v22.57c0 7.444 6.056 13.5 13.5 13.5h20.77v198.806h-16.42c-9.649 0-17.5 7.851-17.5 17.5v77.428c0 9.649 7.851 17.5 17.5 17.5h48.2c9.649 0 17.5-7.851 17.5-17.5v-77.428c0-9.649-7.851-17.5-17.5-17.5h-16.78v-198.806h92.814c.774 5.748 4.217 10.643 9.086 13.37l-29.043 184.394c-.645 4.092 2.15 7.932 6.242 8.575 4.001.629 7.937-2.118 8.576-6.241l5.638-35.798 68.837 52.03-87.442 66.092 8.569-54.401c.645-4.092-2.15-7.932-6.242-8.575-4.093-.643-7.932 2.149-8.576 6.241l-20.56 130.532h-82.925c-7.661 0-13.894 6.228-13.894 13.882v19.147c0 7.654 6.233 13.882 13.894 13.882h484.212c7.661 0 13.894-6.228 13.894-13.882v-19.147c0-7.655-6.233-13.882-13.894-13.882zm-438.106-427.787h39v21.998h-39zm5.7 285.374c1.378 0 2.5 1.121 2.5 2.5v77.428c0 1.379-1.122 2.5-2.5 2.5h-48.2c-1.378 0-2.5-1.121-2.5-2.5v-77.428c0-1.379 1.122-2.5 2.5-2.5zm75.85-228.806h-126.9v-19.57h126.9zm165.25-19.57h66.916l.077 19.57h-66.993zm-.186 34.57h67.238l.768 194.662v161.557h-24.415l-53.926-342.234c5.492-2.558 9.49-7.771 10.335-13.985zm-23.926 24.106 16.794 106.582-64.681-61.472zm-58.776 34.761-45.431-43.177h91.265zm99.481 223.558-87.446-66.095 68.833-52.027zm-140.564-374.228c.455-1.236 1.648-2.067 2.971-2.067h76.75c1.322 0 2.516.831 2.967 2.061l9.727 26.55h-102.139zm-26.279 44.683c0-1.731 1.413-3.14 3.15-3.14h128.94c1.743 0 3.16 1.408 3.16 3.14v44.67c0 1.731-1.417 3.141-3.16 3.141h-128.996c-.016-.001-.031 0-.047-.001-.012 0-.024-.001-.036-.001-1.688-.075-3.011-1.453-3.011-3.138zm7.926 70.194 48.501 46.094-65.476 61.681zm59.391 56.443 67.311 63.971h-135.22zm-64.446 78.971h128.175l-64.087 48.44zm64.087 67.244 84.967 64.222h-169.934zm-103.43 79.221h206.864l8.078 51.266h-223.016zm376.922 83.177h-482v-16.911h482zm-71.854-318.157c-12.949 0-23.484 10.521-23.484 23.455s10.535 23.455 23.484 23.455 23.484-10.521 23.484-23.455-10.535-23.455-23.484-23.455zm0 31.91c-4.678 0-8.484-3.793-8.484-8.455s3.806-8.455 8.484-8.455 8.484 3.793 8.484 8.455-3.806 8.455-8.484 8.455z"/></svg>