<?xml version="1.0" encoding="UTF-8"?>
<svg xmlns="http://www.w3.org/2000/svg" xmlns:xlink="http://www.w3.org/1999/xlink" width="512" height="512" viewBox="0 0 60 51" version="1.1"><!-- Generator: Sketch 51.3 (57544) - http://www.bohemiancoding.com/sketch --><title>015 - Mining Conveyor</title><desc>Created with Sketch.</desc><defs/><g id="Page-1" stroke="none" stroke-width="1" fill="none" fill-rule="evenodd"><g id="015---Mining-Conveyor" fill="#000000" fill-rule="nonzero"><path d="M33.415,15.346 C34.5410339,13.2324953 34.0163604,10.6178131 32.1621207,9.10234297 C30.307881,7.58687289 27.6410841,7.59316643 25.7940179,9.11737146 C23.9469517,10.6415765 23.4346251,13.258706 24.570622,15.3668724 C25.7066189,17.4750388 28.1741946,18.4864318 30.463,17.782 C31.7328435,17.3968322 32.7958219,16.5196589 33.415,15.346 Z M31.648,14.409 C30.9766274,15.6729428 29.505924,16.2866409 28.1352757,15.8747967 C26.7646274,15.4629526 25.8757577,14.1402642 26.0122412,12.7156012 C26.1487246,11.2909382 27.2725508,10.1610671 28.6964611,10.0169432 C30.1203715,9.87281922 31.4478091,10.7545807 31.867,12.123 C32.1018786,12.8837038 32.0230326,13.706726 31.648,14.409 Z" id="Shape"/><path d="M28.705,12.046 C28.3182611,12.1644843 28.0409834,12.5042776 28.0024717,12.9069219 C27.9639601,13.3095661 28.1717993,13.6957594 28.5290665,13.8854056 C28.8863337,14.0750518 29.322664,14.0307997 29.6345807,13.7732856 C29.9464973,13.5157714 30.0725675,13.0957134 29.954,12.709 C29.792131,12.1810567 29.2329781,11.8842445 28.705,12.046 Z" id="Shape"/><path d="M20.825,11.809 C19.0388357,10.8608491 16.8574049,11.0819625 15.2978276,12.3692431 C13.7382502,13.6565237 13.1076294,15.7564877 13.7,17.69 C14.3629292,19.853817 16.3965923,21.3025699 18.6582551,21.2221908 C20.9199179,21.1418117 22.8456032,19.5523443 23.3532505,17.3469252 C23.8608977,15.141506 22.8239181,12.8700871 20.825,11.809 Z M21.131,17.631 C20.4941817,18.8297021 19.1318422,19.4514749 17.8090392,19.1471455 C16.4862362,18.8428161 15.5325764,17.6882152 15.4836125,16.3317394 C15.4346487,14.9752635 16.3025813,13.7549098 17.6,13.356 C17.8861983,13.2685158 18.1837301,13.2237007 18.483,13.223 C19.5354824,13.2240744 20.5104288,13.776608 21.0521074,14.6789963 C21.593786,15.5813846 21.6229659,16.7016356 21.129,17.631 L21.131,17.631 Z" id="Shape"/><path d="M18.188,15.269 C17.8012611,15.3874843 17.5239834,15.7272776 17.4854717,16.1299219 C17.4469601,16.5325661 17.6547993,16.9187594 18.0120665,17.1084056 C18.3693337,17.2980518 18.805664,17.2537997 19.1175807,16.9962856 C19.4294973,16.7387714 19.5555675,16.3187134 19.437,15.932 C19.275131,15.4040567 18.7159781,15.1072445 18.188,15.269 Z" id="Shape"/><path d="M10.308,15.032 C8.20108728,13.9134951 5.59747036,14.4390805 4.08944726,16.2873231 C2.58142416,18.1355657 2.58901076,20.7916914 4.10756732,22.6312892 C5.62612388,24.4708871 8.23270071,24.9815908 10.3331896,23.8510685 C12.4336785,22.7205461 13.4430495,20.2636719 12.744,17.983 C12.358899,16.713369 11.4816689,15.6506817 10.308,15.032 Z M10.614,20.854 C9.94331984,22.1184359 8.47281327,22.7329839 7.10185679,22.3217802 C5.73090032,21.9105766 4.8413656,20.5881595 4.97730094,19.1633326 C5.11323629,17.7385058 6.23677773,16.6081459 7.66075611,16.4635925 C9.08473448,16.319039 10.4125092,17.2005565 10.832,18.569 C11.06747,19.3292087 10.9889689,20.1520301 10.614,20.854 Z" id="Shape"/><path d="M7.671,18.492 C7.28426107,18.6104843 7.00698342,18.9502776 6.96847174,19.3529219 C6.92996006,19.7555661 7.13779933,20.1417594 7.49506652,20.3314056 C7.8523337,20.5210518 8.28866401,20.4767997 8.60058067,20.2192856 C8.91249734,19.9617714 9.03856748,19.5417134 8.92,19.155 C8.75813102,18.6270567 8.1989781,18.3302445 7.671,18.492 Z" id="Shape"/><path d="M0.811,29.156 C1.15293504,29.4105697 1.56770799,29.5483598 1.994,29.549 C2.19466518,29.548991 2.39420235,29.518993 2.586,29.46 L31.341,20.646 C34.9717865,19.5229686 37.3113194,16.0004992 36.9384367,12.2183346 C36.5655541,8.43617007 33.583191,5.43838498 29.803,5.046 C29.930865,4.71196912 29.9975945,4.35765949 30,4 L30,3.562 C30.0002066,2.63800519 29.5746139,1.7654645 28.8463413,1.19679456 C28.1180688,0.628124629 27.1683764,0.42677723 26.272,0.651 L25.921,0.739 C24.8466761,1.00783844 24.0078384,1.84667614 23.739,2.921 L23.707,3.05 L23.36,2.77 C22.6399391,2.22429987 21.7104132,2.03655404 20.835,2.26 L18.63,2.817 C18.351198,2.88384196 18.0571927,2.83399832 17.816,2.679 L16.364,1.708 C15.5973386,1.19141374 14.6333482,1.0626844 13.758,1.36 L13.047,1.594 C11.8260022,2.00695347 11.003095,3.15106379 11,4.44 L11,4.76 C10.9977867,5.14942662 10.7716644,5.50281572 10.419,5.668 L10.285,5.739 C9.6916307,6.04494795 9.21726437,6.5400766 8.937,7.146 C8.916,7.134 8.899,7.118 8.877,7.107 L7.025,6.207 C6.20012396,5.80393161 5.20676374,6.01423203 4.616,6.717 L3.586,7.942 C3.09740837,8.52212183 2.98106608,9.32953732 3.286,10.024 L4.173,12.076 C4.196,12.129 4.232,12.176 4.259,12.221 L1.42,13.091 C0.576103239,13.3425996 -0.00171379467,14.1193973 1.61557643e-15,15 L1.61557643e-15,27.547 C-0.0030077396,28.1822782 0.298539227,28.7805384 0.811,29.156 Z M25.591,3.756 L25.679,3.405 C25.7685115,3.04645995 26.04846,2.76651151 26.407,2.677 L26.758,2.589 C26.8378246,2.56918972 26.919754,2.55911643 27.002,2.559 C27.5542847,2.559 28.002,3.00671525 28.002,3.559 L28.002,4 C28.002,4.55228475 27.5542847,5 27.002,5 L26.564,5 C26.2560346,5.00022291 25.9651439,4.85853422 25.7754634,4.61591507 C25.5857829,4.37329592 25.5184723,4.05681159 25.593,3.758 L25.591,3.756 Z M10.691,8.104 C10.7789377,7.84437641 10.9668285,7.63056963 11.213,7.51 L11.339,7.442 C12.3584402,6.93748555 13.0025503,5.89744743 13,4.76 L13,4.44 C13.0019355,4.0104441 13.2756222,3.62920893 13.682,3.49 L14.391,3.257 C14.6806211,3.15750627 15.0001481,3.19971493 15.254,3.371 L16.709,4.345 C17.4165922,4.80604502 18.2825402,4.95609446 19.104,4.76 L21.33,4.2 C21.6056201,4.13013993 21.8980112,4.18459778 22.13,4.349 L24.276,6.085 L9.999947,10.457 L10,10.32 C9.99889382,10.2144066 10.0151089,10.1093463 10.048,10.009 L10.691,8.104 Z M5.119,9.224 L6.147,8 L8,8.9 L6,11.278 L5.113,9.226 L4.348,8.582 L5.119,9.224 Z M2,15 L27.243,7.266 C28.7632795,6.79598481 30.4083768,6.95332942 31.812,7.703 C33.9519656,8.84218929 35.1961187,11.1572486 34.9653134,13.5705314 C34.7345081,15.9838142 33.0741003,18.0210825 30.757,18.734 L2,27.547 L2,15 Z" id="Shape"/><path d="M52.49,30.744 L51.083,27.929 C50.9905269,27.7443772 50.9184352,27.5502327 50.868,27.35 L50.527,25.986 C50.0986398,24.2659951 48.7611483,22.9196714 47.044,22.48 L47.011,22.472 C45.5999619,22.1170768 44.1041037,22.4188212 42.941,23.293 L41.933,24.05 C40.7188386,24.9644361 40.0033666,26.3950098 40,27.915 L40,28.832 C39.9973756,29.8252003 39.4764472,30.7449763 38.626,31.258 L36.307,32.65 C35.627048,33.0579739 35.0579739,33.627048 34.65,34.307 L33.05,36.969 C32.6232756,37.6779996 31.9073306,38.1644329 31.091,38.3 L27.82,38.846 C27.0064979,38.9815796 26.2412232,39.3230787 25.597,39.838 L22.032,42.69 C21.4882454,43.1276537 21.0449016,43.677059 20.732,44.301 L20.032,45.701 C19.5596843,46.6516124 18.7268627,47.3738952 17.719,47.707 L16.607,48.078 C15.910756,48.3117425 15.4861481,49.0152346 15.6037488,49.7401906 C15.7213495,50.4651467 16.3465693,50.9983382 17.081,51 L58.191,51 C58.710982,51.0001557 59.1939527,50.7310028 59.46736,50.2887023 C59.7407674,49.8464017 59.7656053,49.2940549 59.533,48.829 L57.3,44.362 C57.1045278,43.9699117 57.0018804,43.5381086 57,43.1 L57,41.59 C57.0031466,40.308412 56.4936526,39.0787854 55.585,38.175 L53.829,36.418 C53.2964395,35.8889449 52.9978884,35.1686768 53,34.418 L53,32.9 C52.9984395,32.1516317 52.8238953,31.4137548 52.49,30.744 Z M54.171,39.586 C54.7035605,40.1150551 55.0021116,40.8353232 55,41.586 L55,43.1 C55.0009436,43.84972 55.1755042,44.5890354 55.51,45.26 L57.383,49 L49.535,49 L48.85,47.971 C48.2957777,47.142369 47.999954,46.167891 48,45.171 C48.0006721,44.2727684 47.8292489,43.3827255 47.495,42.549 L45.929,38.632 C45.7960972,38.3001003 45.4962236,38.064315 45.1423385,38.0134624 C44.7884535,37.9626097 44.4343207,38.1044153 44.2133385,38.3854624 C43.9923563,38.6665095 43.9380972,39.0441003 44.071,39.376 L45.638,43.293 C45.87721,43.8888244 46.0000902,44.5249501 46,45.167 C46.0006447,46.5281267 46.3966935,47.8597537 47.14,49 L19.64,49 C20.5746882,48.4167651 21.3295889,47.5860629 21.821,46.6 L22.521,45.2 C22.7045186,44.8344287 22.964372,44.5125105 23.283,44.256 L26.846,41.4 C27.2228372,41.0986837 27.6702512,40.8983799 28.146,40.818 L31.417,40.273 C32.8132605,40.0433589 34.038338,39.2123827 34.768,38 L36.368,35.338 C36.607301,34.9397277 36.9407277,34.606301 37.339,34.367 L39.658,32.975 C41.1087062,32.0978508 41.9965434,30.5272661 42,28.832 L42,27.915 C42.0021898,27.0247552 42.4211181,26.1868987 43.132,25.651 L44.142,24.894 C44.8158665,24.3860649 45.6819489,24.2069767 46.502,24.406 L46.528,24.413 C47.5424769,24.6657831 48.3347243,25.457646 48.588,26.472 L48.928,27.833 C49.0137883,28.1752805 49.1365083,28.507228 49.294,28.823 L50.7,31.638 C50.8954722,32.0300883 50.9981196,32.4618914 51,32.9 L51,34.41 C50.9968534,35.691588 51.5063474,36.9212146 52.415,37.825 L54.171,39.586 Z" id="Shape"/><path d="M42.562,19 L43,19 C44.6568542,19 46,17.6568542 46,16 L46,15.562 C46.0002066,14.6380052 45.5746139,13.7654645 44.8463413,13.1967946 C44.1180688,12.6281246 43.1683764,12.4267772 42.272,12.651 L41.921,12.739 C40.8466761,13.0078384 40.0078384,13.8466761 39.739,14.921 L39.651,15.272 C39.4267772,16.1683764 39.6281246,17.1180688 40.1967946,17.8463413 C40.7654645,18.5746139 41.6380052,19.0002066 42.562,19 Z M41.591,15.758 L41.679,15.407 C41.7685115,15.04846 42.04846,14.7685115 42.407,14.679 L42.758,14.591 C42.8378246,14.5711897 42.919754,14.5611164 43.002,14.561 C43.5542847,14.561 44.002,15.0087153 44.002,15.561 L44.002,16 C44.002,16.5522847 43.5542847,17 43.002,17 L42.564,17 C42.2560346,17.0002229 41.9651439,16.8585342 41.7754634,16.6159151 C41.5857829,16.3732959 41.5184723,16.0568116 41.593,15.758 L41.591,15.758 Z" id="Shape"/><path d="M38,2 C37.3841954,2.00009323 36.8027672,2.28386373 36.4238213,2.76926596 C36.0448755,3.2546682 35.9106674,3.88757634 36.06,4.485 L36.56,6.485 C36.7825301,7.37525923 37.5823502,7.99986106 38.5,8 L40.1,8 C40.8576718,8.00398845 41.5519372,7.57758309 41.891,6.9 L42.891,4.9 C43.203818,4.27921559 43.1718566,3.54052823 42.8065883,2.94908308 C42.4413199,2.35763793 41.7951442,1.99828091 41.1,2 L38,2 Z M40.1,6 L38.5,6 L38,4 L41.1,4 L40.1,6 Z" id="Shape"/><path d="M40.515,37.143 C40.0416776,36.8586697 39.4274846,37.0117703 39.143,37.485 L37.6,40.064 C36.8760481,41.2635063 35.5780411,41.9976406 34.177,42 C33.2478554,42.0012908 32.3316159,42.2176013 31.5,42.632 L28.553,44.105 C28.0587052,44.3518713 27.8581287,44.9527051 28.105,45.447 C28.3518713,45.9412948 28.9527052,46.1418713 29.447,45.895 L32.4,44.421 C32.9520451,44.1457942 33.5601621,44.0017215 34.177,44 C36.2780124,43.9939411 38.2237071,42.8924042 39.31,41.094 L40.857,38.515 C41.1413303,38.0416776 40.9882297,37.4274846 40.515,37.143 Z" id="Shape"/></g></g></svg>
